<?xml version="1.0" ?><svg style="enable-background:new 0 0 128 128;" version="1.1" viewBox="0 0 128 128" xml:space="preserve" xmlns="http://www.w3.org/2000/svg" xmlns:xlink="http://www.w3.org/1999/xlink"><g id="Layer_1"/><g id="refrigerator"/><g id="washer"/><g id="tv"/><g id="microwawe"/><g id="vacuum_cleaner"/><g id="Gift"/><g id="umbrella"/><g id="rocket"/><g id="basket"/><g id="shopping"/><g id="email"/><g id="message"/><g id="delivery"/><g id="store"/><g id="label"/><g id="phone"/><g id="imac"><g><g><path d="M112,85H16c-5.514,0-10-4.486-10-10V17c0-5.514,4.486-10,10-10h96c5.514,0,10,4.486,10,10v58     C122,80.514,117.514,85,112,85z M16,11c-3.309,0-6,2.691-6,6v58c0,3.309,2.691,6,6,6h96c3.309,0,6-2.691,6-6V17     c0-3.309-2.691-6-6-6H16z" style="fill:#505070;"/></g><g><rect height="4" style="fill:#505070;" width="112" x="8" y="65"/></g><g><path d="M77.831,112H50.169c-1.87,0-3.6-0.849-4.745-2.328c-1.145-1.479-1.532-3.366-1.063-5.178     l5.704-21.996l3.871,1.004l-5.703,21.996c-0.156,0.604-0.026,1.232,0.355,1.726c0.381,0.493,0.958,0.776,1.581,0.776h27.662     c0.623,0,1.2-0.283,1.581-0.776c0.382-0.493,0.512-1.122,0.354-1.726l-5.702-21.996l3.871-1.004l5.703,21.996     c0.47,1.812,0.082,3.698-1.063,5.178C81.431,111.151,79.701,112,77.831,112z" style="fill:#505070;"/></g><g><circle cx="64" cy="75" r="2" style="fill:#FFFFFF;"/><path d="M64,79c-2.206,0-4-1.794-4-4s1.794-4,4-4s4,1.794,4,4S66.206,79,64,79z" style="fill:#505070;"/></g></g></g><g id="laptop"/><g id="heart_like"/><g id="game"/><g id="wallet"/><g id="camera"/><g id="battery"/><g id="shoes"/><g id="t-shirt"/><g id="pencil"/><g id="people"/><g id="statistics"/><g id="blog"/><g id="rock"/><g id="like"/><g id="dislike"/><g id="speaker"/><g id="pc"/><g id="glasses"/><g id="headphones"/><g id="player"/><g id="book"/><g id="transfer"/><g id="mouse"/><g id="package"/><g id="exellent"/><g id="card"/><g id="induction"/><g id="revers_camera"/><g id="flesh_drive"/><g id="time"/><g id="sale"/><g id="tablet"/><g id="search"/></svg>