<?xml version="1.0" ?><!DOCTYPE svg  PUBLIC '-//W3C//DTD SVG 1.1//EN'  'http://www.w3.org/Graphics/SVG/1.1/DTD/svg11.dtd'><svg enable-background="new 0 0 128 128" id="Слой_1" version="1.1" viewBox="0 0 128 128" xml:space="preserve" xmlns="http://www.w3.org/2000/svg" xmlns:xlink="http://www.w3.org/1999/xlink"><g><g><g><g><g><g><path d="M42.5,11.2h43c5.5,0,10,4.5,10,10v85.5c0,5.5-4.5,10-10,10h-43c-5.5,0-10-4.5-10-10V21.2        C32.5,15.7,37,11.2,42.5,11.2z" fill="#C7D7E2"/></g></g></g></g><g><g><g><circle cx="64" cy="105.8" fill="#FFFFFF" r="5"/></g></g></g><g><g><g><g><path d="M85.5,11.2h-43c-5.5,0-10,4.5-10,10v76.2h63V21.2C95.5,15.7,91,11.2,85.5,11.2z" fill="#FFFFFF"/></g></g></g></g><g><g><g><g><path d="M69.5,25h-11c-1.7,0-3-1.3-3-3s1.3-3,3-3h11c1.7,0,3,1.3,3,3S71.2,25,69.5,25z" fill="#C7D7E2"/></g></g></g></g><g><g><g><g><path d="M85.5,119.8h-43c-7.2,0-13-5.8-13-13V21.2c0-7.2,5.8-13,13-13h43c7.2,0,13,5.8,13,13v85.5        C98.5,113.9,92.7,119.8,85.5,119.8z M42.5,14.2c-3.9,0-7,3.1-7,7v85.5c0,3.9,3.1,7,7,7h43c3.9,0,7-3.1,7-7V21.2        c0-3.9-3.1-7-7-7H42.5z" fill="#454B54"/></g></g></g></g></g></g></svg>