<?xml version="1.0" ?><!DOCTYPE svg  PUBLIC '-//W3C//DTD SVG 1.1//EN'  'http://www.w3.org/Graphics/SVG/1.1/DTD/svg11.dtd'><svg enable-background="new 0 0 128 128" id="Слой_1" version="1.1" viewBox="0 0 128 128" xml:space="preserve" xmlns="http://www.w3.org/2000/svg" xmlns:xlink="http://www.w3.org/1999/xlink"><g><g><polygon fill="#C9EAF5" points="118.5,81.5 28.5,81.5 12.4,21.5 102.4,21.5   "/></g><g><polygon fill="#FFFFFF" points="112,76.5 32.3,76.5 18.9,26.5 98.6,26.5   "/></g><g><path d="M55.2,58.3c0.4,1.4-0.4,2.5-1.8,2.5c-1.4,0-2.8-1.1-3.2-2.5c-0.4-1.4,0.4-2.5,1.8-2.5    C53.4,55.8,54.8,57,55.2,58.3z" fill="#387074"/></g><g><path d="M66.2,58.3c0.4,1.4-0.4,2.5-1.8,2.5c-1.4,0-2.8-1.1-3.2-2.5c-0.4-1.4,0.4-2.5,1.8-2.5    C64.4,55.8,65.8,57,66.2,58.3z" fill="#387074"/></g><g><path d="M77.2,58.3c0.4,1.4-0.4,2.5-1.8,2.5c-1.4,0-2.8-1.1-3.2-2.5c-0.4-1.4,0.4-2.5,1.8-2.5    C75.4,55.8,76.8,57,77.2,58.3z" fill="#387074"/></g><g><path d="M73,42.8c1.1,4.1-1.3,7.5-5.5,7.5S59.1,47,58,42.8s1.3-7.5,5.5-7.5S71.9,38.7,73,42.8z" fill="#C9EAF5"/></g><g><path d="M87.2,58.3c0.4,1.4-0.4,2.5-1.8,2.5c-1.4,0-2.8-1.1-3.2-2.5c-0.4-1.4,0.4-2.5,1.8-2.5    C85.4,55.8,86.8,57,87.2,58.3z" fill="#387074"/></g><g><path d="M119.5,82.2H27.9l-0.1-0.6L11.5,20.7H103l0.1,0.6L119.5,82.2z M29.1,80.7h88.4l-15.7-58.5H13.4L29.1,80.7z    " fill="#387074"/></g><g><polygon fill="#387074" points="111.3,76.7 98,27.2 18.9,27.2 18.9,25.7 99.2,25.7 112.7,76.3   "/></g><g><polygon fill="#387074" points="115.6,86.2 25,86.2 24.8,85.7 8.8,25.7 10.2,25.3 26.1,84.7 115.6,84.7   "/></g><g><g><polygon fill="#C9EAF5" points="51.5,106.5 61.5,85.5 81.5,85.5 81.5,106.5    "/></g><g><path d="M91.5,107.3H50.3L61,84.8h21.2l0,21h9.3V107.3z M52.7,105.8h28.1l0-19.5H62L52.7,105.8z" fill="#387074"/></g></g></g></svg>